<svg width="900" height="1200" viewBox="0 0 900 1200" fill="none" xmlns="http://www.w3.org/2000/svg" role="img" aria-label="Fixture illustration of soft olive tailored trousers">
  <defs>
    <linearGradient id="bg" x1="110" y1="80" x2="790" y2="1120" gradientUnits="userSpaceOnUse">
      <stop stop-color="#E8EDDF"/>
      <stop offset="1" stop-color="#D5DDC7"/>
    </linearGradient>
    <linearGradient id="pants" x1="310" y1="200" x2="590" y2="1040" gradientUnits="userSpaceOnUse">
      <stop stop-color="#AEBB8E"/>
      <stop offset="1" stop-color="#7F8D61"/>
    </linearGradient>
    <filter id="shadow" x="130" y="150" width="640" height="940" filterUnits="userSpaceOnUse" color-interpolation-filters="sRGB">
      <feFlood flood-opacity="0" result="BackgroundImageFix"/>
      <feColorMatrix in="SourceAlpha" type="matrix" values="0 0 0 0 0 0 0 0 0 0 0 0 0 0 0 0 0 0 127 0" result="hardAlpha"/>
      <feOffset dy="18"/>
      <feGaussianBlur stdDeviation="22"/>
      <feColorMatrix type="matrix" values="0 0 0 0 0.18 0 0 0 0 0.22 0 0 0 0 0.14 0 0 0 0.2 0"/>
      <feBlend mode="normal" in2="BackgroundImageFix" result="effect1_dropShadow"/>
      <feBlend mode="normal" in="SourceGraphic" in2="effect1_dropShadow" result="shape"/>
    </filter>
  </defs>
  <rect width="900" height="1200" rx="64" fill="url(#bg)"/>
  <circle cx="714" cy="174" r="110" fill="#F5F8EE" opacity="0.8"/>
  <circle cx="178" cy="978" r="168" fill="#91A066" opacity="0.16"/>
  <g filter="url(#shadow)">
    <path d="M338 198H562L606 340L631 1042H516L470 566H430L384 1042H269L294 340L338 198Z" fill="url(#pants)"/>
    <path d="M338 198H562L606 340L631 1042H516L470 566H430L384 1042H269L294 340L338 198Z" stroke="#708051" stroke-width="10" stroke-linejoin="round"/>
    <path d="M450 206V560" stroke="#88986A" stroke-width="8" stroke-linecap="round"/>
    <path d="M370 364L450 448L530 364" stroke="#97A679" stroke-width="8" stroke-linecap="round" stroke-linejoin="round"/>
    <path d="M339 206H561" stroke="#8A9A6B" stroke-width="8" stroke-linecap="round"/>
    <path d="M390 612H510" stroke="#8A9A6B" stroke-width="8" stroke-linecap="round" opacity="0.8"/>
    <path d="M360 1042L402 560" stroke="#D7E0C6" stroke-width="6" stroke-linecap="round" opacity="0.7"/>
    <path d="M540 1042L498 560" stroke="#D7E0C6" stroke-width="6" stroke-linecap="round" opacity="0.7"/>
  </g>
  <rect x="72" y="1048" width="756" height="96" rx="32" fill="#FFFFFF" opacity="0.52"/>
  <text x="116" y="1108" fill="#576345" font-size="34" font-family="Inter, ui-sans-serif, system-ui, sans-serif" letter-spacing="3">FIXTURE ILLUSTRATION</text>
</svg>
